<svg version="1" xmlns="http://www.w3.org/2000/svg" width="364" height="364" viewBox="0 0 273.000000 273.000000"><path d="M129.9 23.9c-2 2-5.5 5.4-7.8 7.6-5.7 5.4-10.2 14.8-10.8 22.7l-.6 6.3-4.9 2.3c-7.1 3.4-14.8 9.9-16.4 13.8-.8 1.9-1.4 5.6-1.4 8.2.1 9.8-.1 10.9-2.9 12.5-7.3 4.5-15.5 14.4-16.5 19.9-.5 3.1 1.3 9.8 2.6 9.8.5 0 .7 1.3.3 2.9-.9 4.1 1.8 9.1 4.9 9.1 1.7 0 2.6.7 3 2.5.3 1.3 1.5 3.3 2.6 4.3 1.8 1.7 2.1 3.6 2.6 14.8.4 7.1.7 16.2.8 20.3.1 5.6.5 7.6 1.6 7.9.8.3 3.8 2.9 6.5 5.9 4.5 4.6 5.1 5.9 5.4 10.1.1 2.6.5 5 .7 5.4.3.4.7 2.4.9 4.5.9 8.6 1.6 14.9 2 17.3.4 2.4 1.2 9.2 2.1 17.7.2 2.3.8 5.2 1.3 6.5.9 2.4-.9 6.5-2.2 5.1-.4-.3-.7-.3-.7.1 0 .7 4.3 2.7 7 3.2 8 1.6 46 2.8 48.4 1.5.5-.2 3-.6 5.5-.8 2.5-.2 4.8-.8 4.9-1.3.2-.6.7-.8 1.2-.5.4.2.7-1.4.7-3.8 0-2.3.5-6.9 1.1-10.2 1.5-8.2 2-11.9 2.7-19.5.4-3.6.8-7.6 1.1-9 .3-2.3 1.4-11 2-17 .1-1.4.2-2.8.3-3.1.1-.4 1.5-2.2 3.2-4 1.7-1.8 3.6-4 4.2-4.8.7-.9 2.1-2.1 3.2-2.7 1.7-1 2-2.3 2.2-9 .1-4.3.4-11.1.8-14.9.3-3.9.6-7.9.5-9-.1-1.1-.2-3.1-.3-4.5-.2-2.6 5.7-13.2 7-12.8.5.1 1.8-.1 2.9-.5 3.1-1.1 7.7-11.9 6.4-15.1-1.4-3.9-6.6-9.1-11-11.1-2.2-1-4-2.2-4-2.7 0-1.7-.2-2.3-1.2-3.6-.8-.9-.6-1.7.6-3 .9-1 1.6-2.5 1.6-3.3 0-2.5-3.8-7.8-7.3-10.1-3.5-2.2-3.5-2.2-3.8-11.1 0-.6.3-2.7.6-4.5 1.4-7.3-6-16.3-21.1-25.5-11.8-7.3-21.6-14.2-26-18.5-1.5-1.4-1.6-1.7-1.8-6.1 0-1.6-.3-3.1-.6-3.4-.3-.2-2.1 1.2-4.1 3.2z"/></svg>